<svg width="188" height="188" viewBox="0 0 188 188" fill="none" xmlns="http://www.w3.org/2000/svg">
<path d="M94.0452 132.288C115.165 132.288 132.288 115.166 132.288 94.0454C132.288 72.9247 115.165 55.803 94.0452 55.803C72.9244 55.803 55.8027 72.9247 55.8027 94.0454C55.8027 115.166 72.9244 132.288 94.0452 132.288Z" stroke="white" stroke-width="14.3409" stroke-linecap="round" stroke-linejoin="round"/>
<path d="M8 132.288V55.803C8 29.4022 29.4022 8 55.803 8H132.288C158.689 8 180.091 29.4022 180.091 55.803V132.288C180.091 158.689 158.689 180.091 132.288 180.091H55.803C29.4022 180.091 8 158.689 8 132.288Z" stroke="white" stroke-width="14.3409"/>
<path d="M146.629 41.5579L146.725 41.4517" stroke="white" stroke-width="14.3409" stroke-linecap="round" stroke-linejoin="round"/>
</svg>
